#!OML:ASF F:\VICON\USERDATA\INSTALL\rory3\rory3.ASF
:FULLY-SPECIFIED
:DEGREES
49
root 0.404199 17.564 -8.12529 0.157125 6.11817 -1.88252
lowerback 17.3933 0.970944 2.38254
upperback 0.134182 1.83297 0.642207
thorax -9.58479 0.779772 -1.11976
lowerneck -20.12 -5.37825 -2.16147
upperneck 8.83604 -7.33799 5.03753
head 6.19853 -3.20295 1.1521
rclavicle 1.4884e-014 -1.02374e-014
rhumerus -43.2128 11.9673 -99.6101
rradius 105.49
rwrist -27.0772
rhand -16.7627 37.0949
rfingers 7.12502
rthumb 9.46428 7.32744
lclavicle 1.4884e-014 -1.02374e-014
lhumerus -51.6517 -6.15146 87.2644
lradius 109.525
lwrist 29.0177
lhand -24.1311 5.45704
lfingers 7.12502
lthumb 2.35074 35.4238
rfemur -10.7281 -2.80479 24.1964
rtibia 101.418
rfoot 20.5792 -10.4995
rtoes 19.3394
lfemur -23.7688 -6.39193 -22.5354
ltibia 43.1361
lfoot -15.9818 -7.50601
ltoes 3.33471
50
root 0.39625 17.4528 -7.6761 0.377108 4.61941 -1.11087
lowerback 17.5516 1.45223 1.01322
upperback 0.177109 2.17248 0.419589
thorax -9.65605 0.998909 -0.673851
lowerneck -19.9477 -5.23256 -2.22983
upperneck 8.40787 -7.14712 5.34155
head 6.04248 -3.09915 1.28984
rclavicle -5.05658e-015 2.15681e-014
rhumerus -44.2817 10.5115 -99.8227
rradius 104.343
rwrist -26.7593
rhand -17.598 34.0326
rfingers 7.12502
rthumb 8.65831 4.23018
lclavicle -5.05658e-015 2.15681e-014
lhumerus -49.4817 -5.47039 87.1526
lradius 109.657
lwrist 29.0148
lhand -23.9503 5.7932
lfingers 7.12502
lthumb 2.52534 35.758
rfemur -14.0718 -2.19589 22.6709
rtibia 104.254
rfoot 20.501 -9.44727
rtoes 26.2349
lfemur -22.3841 -5.50743 -23.7306
ltibia 44.2477
lfoot -18.9709 -4.26624
ltoes 0.38772
51
root 0.39174 17.3548 -7.23493 0.360956 3.39165 0.402256
lowerback 18.1989 1.87301 -1.01628
upperback 0.0618462 2.26404 -0.0156042
thorax -10.2094 1.12414 -0.0420111
lowerneck -19.3305 -5.10854 -2.25941
upperneck 8.00512 -7.0071 5.68298
head 5.82646 -3.02449 1.43459
rclavicle -1.05853e-014 -4.12478e-015
rhumerus -44.668 9.61527 -99.9843
rradius 102.231
rwrist -26.3587
rhand -17.8413 34.6266
rfingers 7.12502
rthumb 8.42353 4.81458
lclavicle -1.05853e-014 -4.12478e-015
lhumerus -47.5203 -4.74176 86.931
lradius 109.718
lwrist 29.11
lhand -24.8101 5.59644
lfingers 7.12502
lthumb 1.69496 35.5695
rfemur -17.113 -1.87316 20.1617
rtibia 106.661
rfoot 20.582 -7.84937
rtoes 28.8945
lfemur -20.3671 -5.02249 -25.755
ltibia 44.6104
lfoot -20.7912 -1.28743
ltoes -2.38033
52
root 0.397518 17.2988 -6.78031 0.282809 2.68996 1.62905
lowerback 18.6392 2.09511 -2.47797
upperback 0.162145 2.18927 -0.448933
thorax -10.3855 1.14837 0.32212
lowerneck -19.3841 -5.0351 -2.27149
upperneck 7.80386 -6.94908 6.09737
head 5.78698 -2.96661 1.57515
rclavicle -2.80473e-015 -7.95139e-016
rhumerus -45.5569 8.39371 -100.069
rradius 101.012
rwrist -25.4972
rhand -17.7864 36.6738
rfingers 7.12502
rthumb 8.47643 6.86387
lclavicle -2.80473e-015 -7.95139e-016
lhumerus -45.1999 -4.06479 86.6169
lradius 109.949
lwrist 29.0889
lhand -25.6465 5.87865
lfingers 7.12502
lthumb 0.887165 35.8566
rfemur -20.1117 -2.20093 18.0431
rtibia 108.355
rfoot 18.1183 -9.00145
rtoes 18.2663
lfemur -18.2583 -5.22413 -27.3553
ltibia 44.6192
lfoot -22.248 0.288682
ltoes -2.51466
53
root 0.406914 17.2589 -6.32005 0.498522 2.24893 2.11554
lowerback 18.4871 2.17772 -3.14119
upperback 0.585507 2.15385 -0.58781
thorax -9.84865 1.15393 0.571509
lowerneck -21.1099 -5.08712 -2.31593
upperneck 8.15893 -7.00835 6.12305
head 6.17799 -2.95097 1.55027
rclavicle -1.73176e-014 3.65267e-015
rhumerus -45.86 7.27089 -99.7653
rradius 100.324
rwrist -24.5702
rhand -17.4853 37.0394
rfingers 7.12502
rthumb 8.76705 7.24151
lclavicle -1.73176e-014 3.65267e-015
lhumerus -42.1953 -3.24255 86.5155
lradius 110.261
lwrist 28.8853
lhand -25.4395 5.94362
lfingers 7.12502
lthumb 1.08711 35.9206
rfemur -23.6384 -2.79955 17.1445
rtibia 109.439
rfoot 18.509 -7.51888
rtoes 16.4946
lfemur -16.6395 -5.52435 -28.0687
ltibia 44.5358
lfoot -23.0756 1.72691
ltoes -3.37762
54
root 0.420172 17.2135 -5.86692 1.0388 2.18081 2.18606
lowerback 18.205 2.08766 -3.26331
upperback 0.364229 2.01082 -0.647501
thorax -9.93271 1.09335 0.617566
lowerneck -20.6894 -5.02592 -2.20701
upperneck 7.81158 -6.93262 6.06831
head 5.99091 -2.93196 1.53486
rclavicle -9.69541e-015 5.13113e-015
rhumerus -47.4066 6.01786 -99.5905
rradius 100.211
rwrist -23.7469
rhand -17.347 37.3
rfingers 7.12502
rthumb 8.9005 7.50772
lclavicle -9.69541e-015 5.13113e-015
lhumerus -40.5061 -2.63503 86.4881
lradius 110.887
lwrist 28.9528
lhand -26.37 5.5253
lfingers 7.12502
lthumb 0.188347 35.505
rfemur -27.1503 -3.59768 16.9522
rtibia 109.938
rfoot 16.8301 -7.06678
rtoes 10.4377
lfemur -15.495 -5.77675 -28.2873
ltibia 44.4895
lfoot -23.5994 2.6019
ltoes -3.24706
55
root 0.431431 17.1849 -5.41244 1.5918 2.26727 1.94982
lowerback 17.9423 1.83691 -3.00077
upperback 0.183055 1.74485 -0.616512
thorax -9.96755 0.957767 0.576845
lowerneck -20.6943 -4.90496 -2.19876
upperneck 7.64418 -6.76023 6.05072
head 5.92977 -2.85345 1.54934
rclavicle 1.21383e-014 -3.16813e-014
rhumerus -48.6937 5.17276 -99.4444
rradius 100.209
rwrist -23.6035
rhand -16.9393 37.2557
rfingers 7.12502
rthumb 9.29389 7.48058
lclavicle 1.21383e-014 -3.16813e-014
lhumerus -38.7401 -1.93635 86.4514
lradius 111.721
lwrist 29.6584
lhand -27.631 5.15385
lfingers 7.12502
lthumb -1.02951 35.1311
rfemur -30.2314 -4.33716 17.3042
rtibia 109.795
rfoot 15.452 -6.69881
rtoes 6.81488
lfemur -14.2592 -5.82947 -28.1683
ltibia 44.432
lfoot -24.5329 2.86188
ltoes -4.49866
56
root 0.440801 17.1824 -4.9495 2.0777 2.49792 1.41141
lowerback 17.6069 1.46256 -2.4654
upperback 0.0789333 1.38954 -0.429262
thorax -9.87114 0.76905 0.57628
lowerneck -20.6295 -4.72775 -2.16953
upperneck 7.39025 -6.49049 5.85646
head 5.81802 -2.74483 1.51703
rclavicle 8.28373e-015 -8.54774e-015
rhumerus -49.8868 4.79886 -99.2684
rradius 100.34
rwrist -24.0125
rhand -16.5441 37.2531
rfingers 7.12502
rthumb 9.67527 7.49527
lclavicle 8.28373e-015 -8.54774e-015
lhumerus -37.1047 -1.17922 86.317
lradius 112.797
lwrist 30.6741
lhand -26.7022 5.32072
lfingers 7.12502
lthumb -0.132425 35.3004
rfemur -33.0833 -5.0451 18.1885
rtibia 109.06
rfoot 16.6571 -5.55575
rtoes 12.2877
lfemur -12.8786 -5.98613 -27.7194
ltibia 44.1844
lfoot -25.1183 2.9607
ltoes -5.97636
57
root 0.45524 17.2102 -4.46982 2.66229 3.08897 1.03227
lowerback 17.1271 0.966299 -1.98258
upperback -0.0308489 0.860731 -0.250186
thorax -9.69876 0.499399 0.638715
lowerneck -20.8322 -4.4838 -2.13664
upperneck 7.29138 -6.14012 5.67193
head 5.79566 -2.58735 1.49064
rclavicle -1.28496e-014 1.4884e-014
rhumerus -51.0983 4.64868 -99.0564
rradius 100.797
rwrist -24.3008
rhand -16.9049 37.6817
rfingers 7.12502
rthumb 9.32706 7.90799
lclavicle -1.28496e-014 1.4884e-014
lhumerus -35.7788 -0.572684 86.1066
lradius 114.026
lwrist 31.4119
lhand -23.9606 5.70063
lfingers 7.12502
lthumb 2.51541 35.6655
rfemur -35.7105 -6.04349 18.9772
rtibia 107.791
rfoot 16.2416 -4.58787
rtoes 13.6056
lfemur -11.4944 -6.38536 -27.4015
ltibia 43.6016
lfoot -24.6958 3.49094
ltoes -7.70103
58
root 0.464478 17.257 -3.97865 2.86401 3.52248 0.834733
lowerback 17.1041 0.528421 -1.81015
upperback -0.120833 0.335951 -0.0385696
thorax -9.77009 0.248313 0.902481
lowerneck -21.0559 -4.24063 -2.3385
upperneck 7.29203 -5.75665 5.66317
head 5.82087 -2.40437 1.56026
rclavicle 1.43467e-014 -7.77745e-015
rhumerus -52.5998 4.65797 -98.7834
rradius 101.577
rwrist -24.4878
rhand -17.2874 38.4977
rfingers 7.12502
rthumb 8.95799 8.70789
lclavicle 1.43467e-014 -7.77745e-015
lhumerus -34.8515 -0.109581 85.9948
lradius 115.318
lwrist 32.4709
lhand -23.2212 6.04094
lfingers 7.12502
lthumb 3.22953 35.9962
rfemur -37.5797 -6.67343 19.6124
rtibia 105.979
rfoot 14.4654 -3.8111
rtoes 11.6862
lfemur -9.43639 -6.67872 -27.3103
ltibia 42.7341
lfoot -23.9507 3.76766
ltoes -9.02549
59
root 0.471118 17.3113 -3.4922 2.98206 3.52717 0.883101
lowerback 17.1358 0.238582 -1.9997
upperback -0.193033 -0.0724466 0.11201
thorax -9.85521 0.0689675 1.27695
lowerneck -21.0711 -4.00569 -2.65329
upperneck 7.35496 -5.37889 5.79645
head 5.84103 -2.21893 1.6953
rclavicle 1.99406e-015 8.02593e-015
rhumerus -54.1696 4.75856 -98.5088
rradius 102.491
rwrist -24.7211
rhand -17.0225 38.7647
rfingers 7.12502
rthumb 9.2136 8.98602
lclavicle 1.99406e-015 8.02593e-015
lhumerus -33.9683 0.0499925 85.8813
lradius 116.568
lwrist 34.2988
lhand -24.9464 5.11016
lfingers 7.12502
lthumb 1.56337 35.0842
rfemur -39.3348 -6.7643 19.9792
rtibia 103.814
rfoot 12.679 -2.99574
rtoes 8.35545
lfemur -7.2401 -6.69692 -27.5343
ltibia 41.7107
lfoot -23.0006 3.3919
ltoes -11.9991
